<svg xmlns="http://www.w3.org/2000/svg" xmlns:xlink="http://www.w3.org/1999/xlink" viewBox="0 0 288 288"><defs><style>.cls-1{isolation:isolate;}.cls-2{fill:#dff2d3;}.cls-3{fill:url(#linear-gradient);}.cls-4{fill:url(#linear-gradient-2);}.cls-11,.cls-12,.cls-13,.cls-5{fill:#fff;}.cls-6{fill:url(#linear-gradient-3);}.cls-7{opacity:0.6;mix-blend-mode:screen;fill:url(#radial-gradient);}.cls-8{fill:url(#radial-gradient-2);}.cls-10,.cls-9{stroke-linecap:round;stroke-linejoin:round;stroke-width:0.5px;}.cls-9{fill:url(#Orange_Yellow);stroke:url(#Orange_Yellow-2);}.cls-10{fill:#e6e7e8;stroke:#fff;}.cls-11{font-size:21px;font-family:MyriadPro-Regular, Myriad Pro;}.cls-12{font-size:28.03px;}.cls-12,.cls-13{font-family:Ganess;}.cls-13{font-size:18px;}</style><linearGradient id="linear-gradient" x1="232.69" y1="55.48" x2="63.13" y2="225.05" gradientUnits="userSpaceOnUse"><stop offset="0" stop-color="#7abd39"/><stop offset="0.03" stop-color="#71b937"/><stop offset="0.19" stop-color="#41a12c"/><stop offset="0.34" stop-color="#1d9025"/><stop offset="0.46" stop-color="#088620"/><stop offset="0.53" stop-color="#00821e"/><stop offset="1" stop-color="#7abd39"/></linearGradient><linearGradient id="linear-gradient-2" x1="-2357.99" y1="-2436.23" x2="-2190.64" y2="-2265.47" gradientTransform="translate(-2137 -2213.68) rotate(180)" xlink:href="#linear-gradient"/><linearGradient id="linear-gradient-3" x1="-2329.81" y1="-2407.3" x2="-2224.09" y2="-2299.43" gradientTransform="translate(-2137 -2213.68) rotate(180)" xlink:href="#linear-gradient"/><radialGradient id="radial-gradient" cx="155.82" cy="156.9" r="223.06" gradientTransform="translate(-8.57 -8.52) scale(1.07 1.07)" gradientUnits="userSpaceOnUse"><stop offset="0.14" stop-color="#03c400"/><stop offset="0.22" stop-color="#029600"/><stop offset="0.3" stop-color="#026e00"/><stop offset="0.39" stop-color="#014c00"/><stop offset="0.48" stop-color="#013000"/><stop offset="0.58" stop-color="#001b00"/><stop offset="0.68" stop-color="#000c00"/><stop offset="0.81" stop-color="#000300"/><stop offset="1"/></radialGradient><radialGradient id="radial-gradient-2" cx="144" cy="144" r="75.86" gradientTransform="translate(61.15 -42.03) rotate(20.99)" gradientUnits="userSpaceOnUse"><stop offset="0.39" stop-color="#046a38"/><stop offset="0.57" stop-color="#046435"/><stop offset="0.82" stop-color="#03522c"/><stop offset="1" stop-color="#034223"/></radialGradient><linearGradient id="Orange_Yellow" x1="130.88" y1="165.33" x2="155.47" y2="165.33" gradientUnits="userSpaceOnUse"><stop offset="0" stop-color="#fff23a"/><stop offset="0.04" stop-color="#fee62d"/><stop offset="0.12" stop-color="#fed41a"/><stop offset="0.2" stop-color="#fdc90f"/><stop offset="0.28" stop-color="#fdc60b"/><stop offset="0.67" stop-color="#f28f3f"/><stop offset="0.89" stop-color="#ed693c"/><stop offset="1" stop-color="#e83e39"/></linearGradient><linearGradient id="Orange_Yellow-2" x1="130.63" y1="165.33" x2="155.72" y2="165.33" xlink:href="#Orange_Yellow"/></defs><g class="cls-1"><g id="Layer_1" data-name="Layer 1"><rect class="cls-2" width="288" height="288"/><path class="cls-3" d="M30.62,144A113.56,113.56,0,1,1,144.17,257.55,113.54,113.54,0,0,1,30.62,144Z"/><path class="cls-4" d="M22.33,144A121.67,121.67,0,1,1,144,265.67,121.67,121.67,0,0,1,22.33,144Z"/><path class="cls-5" d="M63.7,144a80.48,80.48,0,1,1,80.47,80.47A80.47,80.47,0,0,1,63.7,144Z"/><path class="cls-6" d="M67.32,144a76.86,76.86,0,1,1,76.85,76.86A76.85,76.85,0,0,1,67.32,144Z"/><path class="cls-7" d="M58.61,230.7A289.16,289.16,0,0,1,241,70.16a121.84,121.84,0,0,0-96.9-47.83C76.75,22.33,22.16,76.79,22.16,144A121.12,121.12,0,0,0,58.61,230.7Z"/><circle class="cls-8" cx="144" cy="144" r="75.86" transform="translate(-42.03 61.15) rotate(-20.99)"/><path class="cls-9" d="M144.42,212.23a72.21,72.21,0,0,1-10.32-20.77A73.14,73.14,0,0,1,132,157c2.14-10.93,8.66-29,10.31-32.13,0,0,2-3.66,2.07-6.24,0,0,0-.17,0-.18s-1,10.26,2,20.56c1.34,4.54,2.43,5.46,4.93,13.27a85.24,85.24,0,0,1,2.2,8.39c.3,1.42.56,3,.83,5.17.89,7.27,1.78,14.53,0,23.58A58.57,58.57,0,0,1,144.42,212.23Z"/><path class="cls-10" d="M143.23,201.7a29.26,29.26,0,0,1-4.72-10.08,24.61,24.61,0,0,1-.79-6.57,36.69,36.69,0,0,1,.52-4.72c.59-4.28.57-6.18.79-8.14a31.54,31.54,0,0,1,4.2-12.06l4.2,23.08a16.75,16.75,0,0,1,1,8.41A17.2,17.2,0,0,1,143.23,201.7Z"/><text class="cls-11" transform="translate(201.52 157.05)">.</text><text class="cls-12" transform="translate(102.27 202.06)"><tspan xml:space="preserve">@)     %)</tspan></text><text class="cls-13" transform="translate(85.37 154.96) rotate(-93.53) scale(1.16 1)">s</text><text class="cls-13" transform="matrix(0.13, -1.15, 0.99, 0.11, 84.93, 139.44)">f</text><text class="cls-13" transform="matrix(0.2, -1.14, 0.99, 0.17, 85.67, 133.87)">]</text><text class="cls-13" transform="translate(85.78 132.81) rotate(-76.08) scale(1.16 1)">i</text><text class="cls-13" transform="translate(87.61 125.84) rotate(-69.95) scale(1.16 1)">f</text><text class="cls-13" transform="matrix(0.51, -1.04, 0.9, 0.44, 89.5, 120.68)"> </text><text class="cls-13" transform="matrix(0.61, -0.99, 0.85, 0.52, 92.26, 115.11)">J</text><text class="cls-13" transform="translate(95.25 109.8) rotate(-49.13) scale(1.16 1)">o</text><text class="cls-13" transform="translate(104 100.04) rotate(-37.9) scale(1.16 1)">j</text><text class="cls-13" transform="matrix(1.02, -0.55, 0.48, 0.88, 112.05, 93.9)">:</text><text class="cls-13" transform="translate(120.26 89.32) rotate(-17.63) scale(1.16 1)">y</text><text class="cls-13" transform="translate(133.08 85.64) rotate(-8.63) scale(1.16 1)">f</text><text class="cls-13" transform="translate(138.43 84.69) rotate(-0.66) scale(1.16 1)">k</text><text class="cls-13" transform="translate(149.4 84.55) rotate(10.9) scale(1.16 1)">g</text><text class="cls-13" transform="matrix(1.09, 0.4, -0.34, 0.94, 162.03, 87.33)"> </text><text class="cls-13" transform="matrix(1, 0.58, -0.5, 0.86, 167.83, 89.07)">s</text><text class="cls-13" transform="matrix(0.85, 0.78, -0.67, 0.74, 180.98, 97.21)">D</text><text class="cls-13" transform="translate(188.04 103.67) rotate(52.36) scale(1.16 1)">k</text><text class="cls-13" transform="matrix(0.51, 1.04, -0.9, 0.44, 194.75, 112.35)">g</text><text class="cls-13" transform="translate(200.16 124.15) rotate(72.76) scale(1.16 1)">L</text><text class="cls-13" transform="translate(201.82 129.63) rotate(78.47) scale(1.16 1)"> </text><text class="cls-13" transform="matrix(0.12, 1.15, -0.99, 0.1, 203, 135.72)">l</text><text class="cls-13" transform="matrix(-0.08, 1.15, -1, -0.07, 203.9, 140.99)">n</text><path class="cls-5" d="M110.43,235.05h12.41v2.69h-8.66v3.71h8.11v2.69h-8.11v6.08h-3.75Z"/><path class="cls-5" d="M140.69,244.53c0-2.59,0-5.49.12-7.21h-.12c-.84,3.1-2.62,8.15-4.32,12.9h-3.28c-1.29-4.15-3.13-9.91-3.91-12.94h-.12c.15,1.78.22,4.9.22,7.51v5.43h-3.5V235.05h5.72c1.39,4,2.94,8.93,3.48,11.2h0c.43-2,2.39-7.31,3.87-11.2h5.52v15.17h-3.71Z"/><path class="cls-5" d="M163.73,245.54c-.71,2.83-3.21,4.89-7.67,4.89-5.64,0-8.31-3.4-8.31-7.72,0-4.15,2.76-7.88,8.5-7.88,4.73,0,7,2.37,7.46,4.91h-3.84c-.37-1.17-1.33-2.34-3.75-2.34-3.17,0-4.39,2.43-4.39,5.19,0,2.57,1.06,5.27,4.5,5.27a3.46,3.46,0,0,0,3.64-2.32Z"/><path class="cls-5" d="M166.69,235.05h3.85v12.48h8.86l-.44,2.69H166.69Z"/></g></g></svg>